<svg xmlns="http://www.w3.org/2000/svg" viewBox="0 0 400 600" width="400" height="600">
<defs>
  <linearGradient id="spine" x1="0" x2="1" y1="0" y2="0">
    <stop offset="0" stop-color="#000" stop-opacity=".42"/>
    <stop offset=".5" stop-color="#000" stop-opacity=".10"/>
    <stop offset=".72" stop-color="#fff" stop-opacity=".14"/>
    <stop offset="1" stop-color="#fff" stop-opacity="0"/>
  </linearGradient>
  <linearGradient id="sheen" x1="0" y1="0" x2="1" y2="1">
    <stop offset="0" stop-color="#fff" stop-opacity=".06"/>
    <stop offset=".5" stop-color="#fff" stop-opacity="0"/>
    <stop offset="1" stop-color="#000" stop-opacity=".12"/>
  </linearGradient>
  <radialGradient id="vignette" cx=".55" cy=".45" r=".75">
    <stop offset=".6" stop-color="#000" stop-opacity="0"/>
    <stop offset="1" stop-color="#000" stop-opacity=".28"/>
  </radialGradient>
  <filter id="paper" x="0" y="0" width="100%" height="100%">
    <feTurbulence type="fractalNoise" baseFrequency=".85" numOctaves="3" seed="14" stitchTiles="stitch"/>
    <feColorMatrix type="matrix" values="0 0 0 0 .5  0 0 0 0 .45  0 0 0 0 .4  0 0 0 -1.6 1.15"/>
  </filter>
  <filter id="fibres" x="0" y="0" width="100%" height="100%">
    <feTurbulence type="fractalNoise" baseFrequency=".012 .35" numOctaves="2" seed="6"/>
    <feColorMatrix type="matrix" values="0 0 0 0 1  0 0 0 0 1  0 0 0 0 1  0 0 0 .9 -.45"/>
  </filter>
</defs>

<rect width="400" height="600" fill="#0f1b33"/>
<g stroke="#ffffff" stroke-opacity=".05"><line x1="0" y1="20" x2="400" y2="20"/><line x1="0" y1="48" x2="400" y2="48"/><line x1="0" y1="76" x2="400" y2="76"/><line x1="0" y1="104" x2="400" y2="104"/><line x1="0" y1="132" x2="400" y2="132"/><line x1="0" y1="160" x2="400" y2="160"/><line x1="0" y1="188" x2="400" y2="188"/><line x1="0" y1="216" x2="400" y2="216"/><line x1="0" y1="244" x2="400" y2="244"/><line x1="0" y1="272" x2="400" y2="272"/><line x1="0" y1="300" x2="400" y2="300"/><line x1="0" y1="328" x2="400" y2="328"/><line x1="0" y1="356" x2="400" y2="356"/><line x1="0" y1="384" x2="400" y2="384"/><line x1="0" y1="412" x2="400" y2="412"/><line x1="0" y1="440" x2="400" y2="440"/><line x1="0" y1="468" x2="400" y2="468"/><line x1="0" y1="496" x2="400" y2="496"/><line x1="0" y1="524" x2="400" y2="524"/><line x1="0" y1="552" x2="400" y2="552"/><line x1="0" y1="580" x2="400" y2="580"/></g>
<polygon points="200,415 310,470 200,525 90,470" fill="#2b4a8f"/><polygon points="90,470 200,525 200,547 90,492" fill="#1c3266"/><polygon points="200,525 310,470 310,492 200,547" fill="#16284f"/><polygon points="200,355 310,410 200,465 90,410" fill="#5b7fc9"/><polygon points="90,410 200,465 200,487 90,432" fill="#41609f"/><polygon points="200,465 310,410 310,432 200,487" fill="#344d82"/><polygon points="200,295 310,350 200,405 90,350" fill="#f08a4b"/><polygon points="90,350 200,405 200,427 90,372" fill="#c76a33"/><polygon points="200,405 310,350 310,372 200,427" fill="#a8562a"/><polygon points="200,240 250,265 200,290 150,265" fill="#ffd2a8"/><polygon points="150,265 200,290 200,302 150,277" fill="#e0a77a"/><polygon points="200,290 250,265 250,277 200,302" fill="#c98f63"/>
<text x="42" y="62" font-family="'Segoe UI', 'Helvetica Neue', Arial, sans-serif" font-size="13" font-weight="600" fill="#f08a4b" text-anchor="start" letter-spacing="3">SOFTWARE ENGINEERING</text>
<text x="40" y="118.0" font-family="'Segoe UI', 'Helvetica Neue', Arial, sans-serif" font-size="42" font-weight="800" fill="#ffffff" text-anchor="start" letter-spacing="0">Software</text>
<text x="40" y="162.1" font-family="'Segoe UI', 'Helvetica Neue', Arial, sans-serif" font-size="42" font-weight="800" fill="#ffffff" text-anchor="start" letter-spacing="0">Architecture</text>
<text x="40" y="206.2" font-family="'Segoe UI', 'Helvetica Neue', Arial, sans-serif" font-size="42" font-weight="800" fill="#ffffff" text-anchor="start" letter-spacing="0">in Practice</text>
<text x="42" y="568" font-family="'Segoe UI', 'Helvetica Neue', Arial, sans-serif" font-size="13" font-weight="600" fill="#c9d4f0" text-anchor="start" letter-spacing="2">WEI JIANGUO · LARS ERIKSSON</text>

<rect width="400" height="600" filter="url(#fibres)" opacity=".18"/>
<rect width="400" height="600" filter="url(#paper)" opacity=".22"/>
<rect width="400" height="600" fill="url(#vignette)"/>
<rect width="400" height="600" fill="url(#sheen)"/>
<rect width="26" height="600" fill="url(#spine)"/>
<rect x="21" width="1.6" height="600" fill="#000" opacity=".28"/>
<rect x="23" width="1.2" height="600" fill="#fff" opacity=".12"/>
<rect x=".5" y=".5" width="399" height="599" fill="none" stroke="#fff" stroke-opacity=".07"/>
<g opacity=".75"><circle cx="366" cy="562" r="11" fill="none" stroke="#c9d4f0" stroke-width="1.4"/><text x="366" y="566.5" font-family="Georgia, 'Times New Roman', serif" font-size="12" font-weight="700" fill="#c9d4f0" text-anchor="middle">P</text></g>
</svg>