<svg xmlns="http://www.w3.org/2000/svg" viewBox="0 0 400 600" width="400" height="600">
<defs>
  <linearGradient id="spine" x1="0" x2="1" y1="0" y2="0">
    <stop offset="0" stop-color="#000" stop-opacity=".42"/>
    <stop offset=".5" stop-color="#000" stop-opacity=".10"/>
    <stop offset=".72" stop-color="#fff" stop-opacity=".14"/>
    <stop offset="1" stop-color="#fff" stop-opacity="0"/>
  </linearGradient>
  <linearGradient id="sheen" x1="0" y1="0" x2="1" y2="1">
    <stop offset="0" stop-color="#fff" stop-opacity=".06"/>
    <stop offset=".5" stop-color="#fff" stop-opacity="0"/>
    <stop offset="1" stop-color="#000" stop-opacity=".12"/>
  </linearGradient>
  <radialGradient id="vignette" cx=".55" cy=".45" r=".75">
    <stop offset=".6" stop-color="#000" stop-opacity="0"/>
    <stop offset="1" stop-color="#000" stop-opacity=".28"/>
  </radialGradient>
  <filter id="paper" x="0" y="0" width="100%" height="100%">
    <feTurbulence type="fractalNoise" baseFrequency=".85" numOctaves="3" seed="42" stitchTiles="stitch"/>
    <feColorMatrix type="matrix" values="0 0 0 0 .5  0 0 0 0 .45  0 0 0 0 .4  0 0 0 -1.6 1.15"/>
  </filter>
  <filter id="fibres" x="0" y="0" width="100%" height="100%">
    <feTurbulence type="fractalNoise" baseFrequency=".012 .35" numOctaves="2" seed="18"/>
    <feColorMatrix type="matrix" values="0 0 0 0 1  0 0 0 0 1  0 0 0 0 1  0 0 0 .9 -.45"/>
  </filter>
</defs>

<rect width="400" height="600" fill="#e9b53d"/>
<circle cx="360" cy="560" r="170" fill="#e3a92b"/>
<g transform="rotate(-5 200 380)">
  <rect x="104" y="232" width="196" height="268" rx="10" fill="#000" opacity=".15" transform="translate(6 8)"/>
  <rect x="104" y="232" width="196" height="268" rx="10" fill="#fbf6ea"/>
  <rect x="160" y="218" width="84" height="30" rx="8" fill="#1a1a1a"/>
  <rect x="132" y="287" width="20" height="20" rx="4" fill="none" stroke="#1a1a1a" stroke-width="2.5"/><path d="M135,297 l6,7 l12,-15" stroke="#1f8a4c" stroke-width="4" fill="none" stroke-linecap="round" stroke-linejoin="round"/><rect x="166" y="293" width="96" height="8" rx="4" fill="#1a1a1a" opacity="0.75"/><rect x="132" y="327" width="20" height="20" rx="4" fill="none" stroke="#1a1a1a" stroke-width="2.5"/><path d="M135,337 l6,7 l12,-15" stroke="#1f8a4c" stroke-width="4" fill="none" stroke-linecap="round" stroke-linejoin="round"/><rect x="166" y="333" width="80" height="8" rx="4" fill="#1a1a1a" opacity="0.75"/><rect x="132" y="367" width="20" height="20" rx="4" fill="none" stroke="#1a1a1a" stroke-width="2.5"/><path d="M135,377 l6,7 l12,-15" stroke="#1f8a4c" stroke-width="4" fill="none" stroke-linecap="round" stroke-linejoin="round"/><rect x="166" y="373" width="104" height="8" rx="4" fill="#1a1a1a" opacity="0.75"/><rect x="132" y="407" width="20" height="20" rx="4" fill="none" stroke="#1a1a1a" stroke-width="2.5"/><rect x="166" y="413" width="70" height="8" rx="4" fill="#1a1a1a" opacity="0.3"/><rect x="132" y="447" width="20" height="20" rx="4" fill="none" stroke="#1a1a1a" stroke-width="2.5"/><rect x="166" y="453" width="88" height="8" rx="4" fill="#1a1a1a" opacity="0.3"/>
</g>
<text x="42" y="62" font-family="'Segoe UI', 'Helvetica Neue', Arial, sans-serif" font-size="13" font-weight="600" fill="#1a1a1a" text-anchor="start" letter-spacing="3">SOFTWARE ENGINEERING</text>
<text x="40" y="124.0" font-family="'Segoe UI', 'Helvetica Neue', Arial, sans-serif" font-size="46" font-weight="800" fill="#1a1a1a" text-anchor="start" letter-spacing="0">Requirements</text>
<text x="40" y="170.9" font-family="'Segoe UI', 'Helvetica Neue', Arial, sans-serif" font-size="46" font-weight="800" fill="#1a1a1a" text-anchor="start" letter-spacing="0">That Work</text>
<text x="42" y="572" font-family="'Segoe UI', 'Helvetica Neue', Arial, sans-serif" font-size="14" font-weight="600" fill="#1a1a1a" text-anchor="start" letter-spacing="3">WEI JIANGUO</text>

<rect width="400" height="600" filter="url(#fibres)" opacity=".18"/>
<rect width="400" height="600" filter="url(#paper)" opacity=".22"/>
<rect width="400" height="600" fill="url(#vignette)"/>
<rect width="400" height="600" fill="url(#sheen)"/>
<rect width="26" height="600" fill="url(#spine)"/>
<rect x="21" width="1.6" height="600" fill="#000" opacity=".28"/>
<rect x="23" width="1.2" height="600" fill="#fff" opacity=".12"/>
<rect x=".5" y=".5" width="399" height="599" fill="none" stroke="#fff" stroke-opacity=".07"/>
<g opacity=".75"><circle cx="366" cy="562" r="11" fill="none" stroke="#1a1a1a" stroke-width="1.4"/><text x="366" y="566.5" font-family="Georgia, 'Times New Roman', serif" font-size="12" font-weight="700" fill="#1a1a1a" text-anchor="middle">P</text></g>
</svg>